<svg width="17" height="17" viewBox="0 0 17 17" fill="none" xmlns="http://www.w3.org/2000/svg">
<path fill-rule="evenodd" clip-rule="evenodd" d="M1.00484 8.00914C1.00476 7.87653 1.05736 7.74932 1.15107 7.65549C1.24478 7.56167 1.37193 7.50891 1.50454 7.50883L13.2975 7.50168L10.1486 4.35759C10.0547 4.26376 10.0019 4.13645 10.0018 4.00368C10.0017 3.8709 10.0544 3.74353 10.1482 3.64959C10.242 3.55565 10.3693 3.50282 10.5021 3.50274C10.6349 3.50266 10.7623 3.55533 10.8562 3.64916L14.8586 7.64673C14.9052 7.69315 14.9422 7.7483 14.9674 7.80903C14.9927 7.86976 15.0057 7.93488 15.0057 8.00064C15.0058 8.06641 14.9928 8.13154 14.9677 8.1923C14.9425 8.25306 14.9056 8.30826 14.8591 8.35473L10.8615 12.3572C10.7676 12.4511 10.6403 12.5039 10.5076 12.504C10.3748 12.5041 10.2474 12.4514 10.1535 12.3576C10.0595 12.2638 10.0067 12.1365 10.0066 12.0037C10.0066 11.8709 10.0592 11.7435 10.153 11.6496L13.2981 8.50168L1.50514 8.50883C1.37253 8.50891 1.24532 8.45631 1.1515 8.3626C1.05767 8.26889 1.00492 8.14174 1.00484 8.00914Z" fill="white"/>
</svg>
