<svg width="138" height="42" viewBox="0 0 138 42" fill="none" xmlns="http://www.w3.org/2000/svg">
<g clip-path="url(#clip0_459_25)">
<path d="M56.8299 19.6506C55.5324 19.6506 54.3263 19.4261 53.2116 18.977C52.0971 18.5114 51.1156 17.871 50.2671 17.0561C49.4185 16.2245 48.7532 15.2683 48.2707 14.1872C47.805 13.0896 47.5721 11.9087 47.5721 10.6448C47.5721 9.38079 47.805 8.20827 48.2707 7.12723C48.7532 6.02958 49.4103 5.07327 50.242 4.25834C51.0739 3.42678 52.0471 2.78648 53.1618 2.33743C54.293 1.87176 55.499 1.63892 56.7799 1.63892C58.2274 1.63892 59.5914 1.92996 60.8723 2.51207C62.1535 3.07751 63.2097 3.87582 64.0416 4.90697L61.5211 7.22703C60.9224 6.47863 60.2154 5.91316 59.4001 5.53064C58.585 5.14811 57.7117 4.95685 56.7799 4.95685C55.998 4.95685 55.2744 5.10654 54.609 5.40591C53.9436 5.68864 53.3613 6.08778 52.8622 6.60336C52.3631 7.1023 51.9723 7.70101 51.6895 8.39952C51.4233 9.08142 51.2903 9.82982 51.2903 10.6448C51.2903 11.4597 51.4315 12.2164 51.7143 12.9149C51.9973 13.6134 52.3881 14.2205 52.8872 14.7361C53.4029 15.235 53.9935 15.6341 54.6589 15.9335C55.3411 16.2163 56.0813 16.3576 56.8798 16.3576C57.7117 16.3576 58.4603 16.2079 59.1257 15.9085C59.7911 15.5926 60.3484 15.1602 60.7975 14.6113C61.2634 14.0459 61.3714 12.9399 61.5211 12.2414L56.8798 13.4887L56.3058 10.6697L65.5887 8.39952V10.6697C65.5887 11.9669 65.364 13.1644 64.9149 14.262C64.4823 15.3431 63.8753 16.2911 63.0933 17.106C62.3114 17.9043 61.388 18.528 60.3234 18.977C59.2588 19.4261 58.0941 19.6506 56.8299 19.6506ZM70.054 19.3762V1.91333H73.6723V19.3762H70.054ZM78.8492 19.3762V1.91333H83.4906L88.2818 11.3433L93.0729 1.91333H97.7142V19.3762H94.2956V6.52851L88.2318 18.1288L82.193 6.47863V19.3762H78.8492ZM102.851 19.3762V1.91333H116.276V5.05665H106.469V9.04815H112.932V12.0917H106.469V16.2329H116.376V19.3762H102.851ZM120.931 19.3762V1.91333H124.548V9.72172L132.184 1.91333H136.601L128.117 10.2207L137 19.3762H132.159L124.548 11.2684V19.3762H120.931ZM48.5951 40.5811V23.1181H50.5166V30.9266H60.6728V23.1181H62.5942V40.5811H60.6728V32.648H50.5166V40.5811H48.5951ZM75.1171 40.8554C73.8527 40.8554 72.6716 40.6309 71.5738 40.1818C70.4924 39.7163 69.5358 39.0759 68.7041 38.2611C67.8888 37.4295 67.2484 36.4731 66.7826 35.3922C66.3335 34.2944 66.1088 33.1135 66.1088 31.8496C66.1088 30.5857 66.3335 29.4132 66.7826 28.3321C67.2484 27.2345 67.8888 26.2782 68.7041 25.4632C69.5358 24.6316 70.4924 23.9913 71.5738 23.5422C72.6716 23.0767 73.8527 22.8438 75.1171 22.8438C76.3648 22.8438 77.5293 23.0767 78.6108 23.5422C79.7086 23.9913 80.6652 24.6316 81.4805 25.4632C82.3122 26.2782 82.9527 27.2345 83.4018 28.3321C83.8675 29.4132 84.1006 30.5857 84.1006 31.8496C84.1006 33.1135 83.8675 34.2944 83.4018 35.3922C82.9527 36.4731 82.3122 37.4295 81.4805 38.2611C80.6652 39.0759 79.7086 39.7163 78.6108 40.1818C77.5293 40.6309 76.3648 40.8554 75.1171 40.8554ZM75.1171 39.0843C76.1153 39.0843 77.0386 38.9013 77.8869 38.5354C78.7354 38.1695 79.4757 37.6622 80.1079 37.0136C80.7566 36.3483 81.2557 35.5751 81.6051 34.6935C81.9712 33.8121 82.1541 32.8642 82.1541 31.8496C82.1541 30.8185 81.9712 29.8705 81.6051 29.0057C81.2557 28.1241 80.7566 27.3591 80.1079 26.7107C79.4757 26.0454 78.7354 25.5297 77.8869 25.1638C77.0386 24.7979 76.1153 24.615 75.1171 24.615C74.1191 24.615 73.1874 24.7979 72.3222 25.1638C71.4739 25.5297 70.7253 26.0454 70.0765 26.7107C69.4443 27.3591 68.9452 28.1241 68.5792 29.0057C68.23 29.8705 68.0553 30.8103 68.0553 31.8246C68.0553 32.8558 68.23 33.8121 68.5792 34.6935C68.9452 35.5751 69.4443 36.3483 70.0765 37.0136C70.7253 37.6622 71.4739 38.1695 72.3222 38.5354C73.1874 38.9013 74.1191 39.0843 75.1171 39.0843ZM95.8185 40.8554C94.5544 40.8554 93.3731 40.6225 92.2752 40.157C91.1938 39.6913 90.2372 39.0509 89.4055 38.2361C88.5902 37.4045 87.9499 36.4483 87.484 35.3672C87.0183 34.2694 86.7854 33.0969 86.7854 31.8496C86.7854 30.6023 87.0099 29.4382 87.459 28.3571C87.9249 27.2593 88.5654 26.303 89.3805 25.4882C90.2124 24.6566 91.169 24.0079 92.2502 23.5422C93.3481 23.0767 94.5294 22.8438 95.7935 22.8438C97.1411 22.8438 98.4137 23.0933 99.6116 23.5922C100.809 24.0911 101.833 24.7979 102.681 25.7127L101.383 27.0348C100.718 26.27 99.8862 25.6793 98.888 25.2636C97.9064 24.8311 96.875 24.615 95.7935 24.615C94.7955 24.615 93.864 24.7979 92.9989 25.1638C92.1504 25.5297 91.4017 26.0454 90.7529 26.7107C90.121 27.3591 89.6219 28.1241 89.2556 29.0057C88.9064 29.8705 88.7317 30.8185 88.7317 31.8496C88.7317 32.8642 88.9064 33.8121 89.2556 34.6935C89.6219 35.5751 90.121 36.3483 90.7529 37.0136C91.4017 37.6622 92.1504 38.1695 92.9989 38.5354C93.864 38.9013 94.7955 39.0843 95.7935 39.0843C96.9748 39.0843 98.0395 38.8263 98.9878 38.3109C99.9526 37.7954 100.726 37.0886 101.309 36.1904C101.907 35.2924 102.257 34.2778 102.357 33.1469L96.2319 34.6935L95.7935 32.2239L104.303 30.3278V32.2239C104.303 33.4378 104.087 34.5688 103.654 35.6167C103.222 36.6645 102.623 37.579 101.857 38.3608C101.092 39.1425 100.194 39.7577 99.1623 40.2068C98.1311 40.6393 97.0164 40.8554 95.8185 40.8554ZM105.318 40.5811L112.555 23.1181H114.876L122.063 40.5811H119.966L117.77 35.0926H109.536L107.315 40.5811H105.318ZM110.209 33.4462H117.097L113.653 24.8895L110.209 33.4462ZM124.576 40.5811V23.1181H132.062C133.21 23.1181 134.208 23.3261 135.056 23.742C135.905 24.1577 136.562 24.7397 137.028 25.4882C137.511 26.2366 137.751 27.1182 137.751 28.1325C137.751 29.28 137.411 30.2696 136.728 31.1012C136.063 31.9162 135.165 32.4899 134.033 32.8226L137.951 40.5811H135.83L132.087 33.0721H126.497V40.5811H124.576ZM126.497 31.4505H131.937C133.119 31.4505 134.058 31.1512 134.757 30.5523C135.472 29.9537 135.83 29.1471 135.83 28.1325C135.83 27.1348 135.472 26.3363 134.757 25.7377C134.058 25.1388 133.119 24.8395 131.937 24.8395H126.497V31.4505Z" fill="white"/>
<path d="M20.8366 2.05595L1.91587 22.8074C1.28403 23.4399 1.73237 24.52 2.62677 24.52H5.25319C5.81943 24.52 6.27845 24.9785 6.27845 25.5444V39.3366C6.27845 39.9023 6.73746 40.361 7.30372 40.361H36.3045C36.8706 40.361 37.3297 39.9023 37.3297 39.3366V25.5444C37.3297 24.9785 37.7886 24.52 38.355 24.52H40.7227C41.6159 24.52 42.082 23.4579 41.4769 22.8015L22.3484 2.05181C21.941 1.60967 21.2416 1.61158 20.8366 2.05595Z" stroke="white" stroke-width="3"/>
<path d="M31 27.6259C30.5217 29.5804 29.396 31.3429 27.7843 32.6607C26.1729 33.9785 24.1579 34.7842 22.0283 34.9624C19.8987 35.1406 17.7636 34.6821 15.9288 33.6525C14.094 32.6229 12.6536 31.0753 11.8139 29.2312C10.9741 27.3869 10.7782 25.3407 11.2541 23.3856C11.7299 21.4306 12.8532 19.6668 14.463 18.3471C16.0729 17.0274 18.0867 16.2193 20.2161 16.0386C22.3455 15.858 24.4812 16.314 26.3174 17.3414L24.5026 20.1945C23.3088 19.5263 21.9198 19.2298 20.5352 19.3472C19.1504 19.4648 17.8408 19.9902 16.7939 20.8484C15.7471 21.7065 15.0166 22.8536 14.7071 24.125C14.3977 25.3964 14.5251 26.7271 15.0712 27.9263C15.6172 29.1256 16.554 30.1321 17.7471 30.8016C18.9403 31.4712 20.3288 31.7693 21.7136 31.6535C23.0986 31.5374 24.4088 31.0136 25.4569 30.1565C26.5048 29.2995 27.2369 28.1536 27.5479 26.8824L31 27.6259Z" fill="white"/>
<path d="M31.8277 19L21 23.641L22.1723 27L33 22.359L31.8277 19Z" fill="#FF553E"/>
<path d="M12.7576 31C11.7711 29.6052 11.1674 28.0048 11 26.3402L14.8701 26C14.9777 27.0704 15.3658 28.0993 16 28.9959L12.7576 31Z" fill="#FF553E" fill-opacity="0.2"/>
</g>
<defs>
<clipPath id="clip0_459_25">
<rect width="138" height="42" fill="white"/>
</clipPath>
</defs>
</svg>
