<svg width="22" height="22" viewBox="0 0 22 22" fill="none" xmlns="http://www.w3.org/2000/svg">
<path fill-rule="evenodd" clip-rule="evenodd" d="M1.43772 10.7438C1.43932 10.5659 1.51151 10.396 1.63843 10.2713C1.76534 10.1466 1.93658 10.0775 2.11447 10.0791L17.9345 10.221L13.7507 5.96284C13.6259 5.83576 13.5567 5.66431 13.5583 5.48619C13.5599 5.30808 13.6322 5.13789 13.7592 5.01307C13.8863 4.88826 14.0578 4.81903 14.2359 4.82063C14.414 4.82223 14.5842 4.89452 14.709 5.02159L20.0268 10.4356C20.0887 10.4985 20.1376 10.5729 20.1707 10.6547C20.2037 10.7365 20.2204 10.824 20.2196 10.9123C20.2188 11.0005 20.2006 11.0877 20.166 11.1689C20.1315 11.2501 20.0813 11.3236 20.0183 11.3854L14.6042 16.7032C14.4772 16.828 14.3057 16.8972 14.1276 16.8956C13.9495 16.894 13.7793 16.8217 13.6545 16.6946C13.5297 16.5676 13.4604 16.3961 13.462 16.218C13.4636 16.0399 13.5359 15.8697 13.663 15.7449L17.9225 11.5625L2.10244 11.4206C1.92455 11.419 1.75458 11.3468 1.62992 11.2199C1.50526 11.093 1.43613 10.9217 1.43772 10.7438Z" fill="white"/>
</svg>
