<svg width="23" height="23" viewBox="0 0 23 23" fill="none" xmlns="http://www.w3.org/2000/svg">
<path fill-rule="evenodd" clip-rule="evenodd" d="M20.969 11.2297C20.9684 11.4148 20.8943 11.592 20.7631 11.7225C20.6318 11.8529 20.4541 11.9259 20.269 11.9254L3.81024 11.8746L8.18878 16.2788C8.31941 16.4103 8.39248 16.5882 8.3919 16.7735C8.39133 16.9588 8.31717 17.1363 8.18574 17.267C8.0543 17.3976 7.87636 17.4706 7.69105 17.4701C7.50574 17.4695 7.32825 17.3953 7.19762 17.2639L1.63227 11.6641C1.56749 11.5991 1.51617 11.522 1.48125 11.4371C1.44633 11.3522 1.4285 11.2612 1.42879 11.1695C1.42907 11.0777 1.44746 10.9868 1.4829 10.9022C1.51834 10.8175 1.57013 10.7407 1.63532 10.676L7.23508 5.11068C7.36652 4.98005 7.54446 4.90699 7.72977 4.90756C7.91508 4.90813 8.09257 4.98229 8.22319 5.11373C8.35382 5.24516 8.42689 5.42311 8.42632 5.60842C8.42574 5.79372 8.35158 5.97121 8.22015 6.10184L3.81454 10.479L20.2733 10.5297C20.4584 10.5303 20.6357 10.6044 20.7661 10.7356C20.8966 10.8669 20.9696 11.0446 20.969 11.2297Z" fill="white"/>
</svg>
