<svg width="50" height="50" viewBox="0 0 50 50" fill="none" xmlns="http://www.w3.org/2000/svg">
<path d="M24.8333 2.60417C14.7656 2.60417 6.60417 10.7656 6.60417 20.8333V25H16.2396C16.9583 25 17.5417 25.5833 17.5417 26.3021V40.3646C17.5417 41.0833 16.9583 41.6667 16.2396 41.6667H9.98958C8.40105 41.6667 6.87757 41.0356 5.75431 39.9124C4.63104 38.7891 4 37.2656 4 35.6771V20.8333C4 9.32708 13.3271 0 24.8333 0C36.3396 0 45.6667 9.32708 45.6667 20.8333V35.6771C45.6667 37.2656 45.0356 38.7891 43.9124 39.9124C42.7891 41.0356 41.2656 41.6667 39.6771 41.6667H33.4271C32.7083 41.6667 32.125 41.0833 32.125 40.3646V26.3021C32.125 25.5833 32.7083 25 33.4271 25H43.0625V20.8333C43.0625 10.7656 34.901 2.60417 24.8333 2.60417ZM43.0625 27.6042H34.7292V39.0625H39.6771C40.575 39.0625 41.436 38.7058 42.0709 38.0709C42.7058 37.436 43.0625 36.575 43.0625 35.6771V27.6042ZM6.60417 27.6042V35.6771C6.60417 36.575 6.96084 37.436 7.59573 38.0709C8.23062 38.7058 9.09172 39.0625 9.98958 39.0625H14.9375V27.6042H6.60417Z" fill="#111111"/>
</svg>
