<svg width="42" height="42" viewBox="0 0 42 42" fill="none" xmlns="http://www.w3.org/2000/svg">
<path d="M33 15H1V23H33V15Z" stroke="#111111" stroke-width="2" stroke-miterlimit="2" stroke-linecap="round" stroke-linejoin="round"/>
<path d="M33 9V29C33 30.0609 32.5786 31.0783 31.8284 31.8284C31.0783 32.5786 30.0609 33 29 33H9M9 33H5C3.93913 33 2.92172 32.5786 2.17157 31.8284C1.42143 31.0783 1 30.0609 1 29V5C1 3.93913 1.42143 2.92172 2.17157 2.17157C2.92172 1.42143 3.93913 1 5 1H37C38.0609 1 39.0783 1.42143 39.8284 2.17157C40.5786 2.92172 41 3.93913 41 5V37C41 39.21 39.21 41 37 41H13C10.79 41 9 39.21 9 37V33Z" stroke="#111111" stroke-width="2" stroke-miterlimit="2" stroke-linecap="round" stroke-linejoin="round"/>
</svg>
