<svg width="67" height="67" viewBox="0 0 67 67" fill="none" xmlns="http://www.w3.org/2000/svg">
<path d="M56.696 49.4349C61.9638 43.7175 61.4334 36.3754 61.4167 36.2917V13.9584C61.4167 13.218 61.1226 12.5079 60.599 11.9843C60.0755 11.4608 59.3654 11.1667 58.625 11.1667H41.875C38.7958 11.1667 36.2917 13.6708 36.2917 16.75V36.2917C36.2917 37.0321 36.5858 37.7422 37.1093 38.2657C37.6329 38.7892 38.3429 39.0834 39.0833 39.0834H47.6761C47.6171 40.4635 47.2047 41.8054 46.4785 42.9805C45.0603 45.2166 42.3887 46.7437 38.5334 47.5142L36.2917 47.9609V55.8334H39.0833C46.8525 55.8334 52.7793 53.681 56.696 49.4349ZM25.9681 49.4349C31.2388 43.7175 30.7055 36.3754 30.6888 36.2917V13.9584C30.6888 13.218 30.3947 12.5079 29.8711 11.9843C29.3476 11.4608 28.6375 11.1667 27.8971 11.1667H11.1471C8.06792 11.1667 5.5638 13.6708 5.5638 16.75V36.2917C5.5638 37.0321 5.85792 37.7422 6.38146 38.2657C6.905 38.7892 7.61507 39.0834 8.35546 39.0834H16.9482C16.8892 40.4635 16.4769 41.8054 15.7506 42.9805C14.3324 45.2166 11.6608 46.7437 7.80551 47.5142L5.5638 47.9609V55.8334H8.35546C16.1247 55.8334 22.0514 53.681 25.9681 49.4349Z" fill="#FF553E"/>
</svg>
