<svg width="49" height="48" viewBox="0 0 49 48" fill="none" xmlns="http://www.w3.org/2000/svg">
<path d="M38.778 4H10.778C9.67345 4 8.77802 4.89543 8.77802 6V42C8.77802 43.1046 9.67345 44 10.778 44H38.778C39.8826 44 40.778 43.1046 40.778 42V6C40.778 4.89543 39.8826 4 38.778 4Z" stroke="#111111" stroke-width="2"/>
<path d="M8.77802 15.5H40.778" stroke="#111111" stroke-width="2" stroke-linecap="round" stroke-linejoin="round"/>
<path d="M28.778 12C29.8826 12 30.778 11.1046 30.778 10C30.778 8.89543 29.8826 8 28.778 8C27.6734 8 26.778 8.89543 26.778 10C26.778 11.1046 27.6734 12 28.778 12Z" fill="#111111"/>
<path d="M34.778 12C35.8826 12 36.778 11.1046 36.778 10C36.778 8.89543 35.8826 8 34.778 8C33.6734 8 32.778 8.89543 32.778 10C32.778 11.1046 33.6734 12 34.778 12Z" fill="#111111"/>
<path d="M24.778 37C28.644 37 31.778 33.866 31.778 30C31.778 26.134 28.644 23 24.778 23C20.912 23 17.778 26.134 17.778 30C17.778 33.866 20.912 37 24.778 37Z" stroke="#111111" stroke-width="2"/>
</svg>
