<svg width="32" height="32" viewBox="0 0 32 32" fill="none" xmlns="http://www.w3.org/2000/svg">
<path d="M16 24L9.90997 15.4C8.91315 14.2231 8.27121 12.7872 8.05892 11.2595C7.84664 9.73183 8.07273 8.17529 8.71088 6.77115C9.34902 5.36702 10.373 4.17308 11.6634 3.32839C12.9539 2.4837 14.4578 2.02302 16 2C18.1377 2.02113 20.18 2.88859 21.6794 4.41241C23.1789 5.93623 24.0133 7.99219 24 10.13C24.0008 11.9949 23.3659 13.8044 22.2 15.26L16 24ZM16 4C14.3918 4.01847 12.8567 4.67438 11.7318 5.82371C10.6068 6.97303 9.98397 8.52183 9.99997 10.13C10.0067 11.5978 10.5348 13.0155 11.49 14.13L16 20.52L20.63 14C21.5101 12.9014 21.9929 11.5376 22 10.13C22.016 8.52183 21.3931 6.97303 20.2682 5.82371C19.1432 4.67438 17.6081 4.01847 16 4Z" fill="#111111"/>
<path d="M16 11C17.1046 11 18 10.1046 18 9C18 7.89543 17.1046 7 16 7C14.8954 7 14 7.89543 14 9C14 10.1046 14.8954 11 16 11Z" fill="#111111"/>
<path d="M28 12H26V14H28V28H4V14H6V12H4C3.46957 12 2.96086 12.2107 2.58579 12.5858C2.21071 12.9609 2 13.4696 2 14V28C2 28.5304 2.21071 29.0391 2.58579 29.4142C2.96086 29.7893 3.46957 30 4 30H28C28.5304 30 29.0391 29.7893 29.4142 29.4142C29.7893 29.0391 30 28.5304 30 28V14C30 13.4696 29.7893 12.9609 29.4142 12.5858C29.0391 12.2107 28.5304 12 28 12Z" fill="#111111"/>
</svg>
