<svg width="32" height="32" viewBox="0 0 32 32" fill="none" xmlns="http://www.w3.org/2000/svg">
<path d="M23 30.3333H9.66667C8.95942 30.3333 8.28115 30.0523 7.78105 29.5522C7.28095 29.0521 7 28.3738 7 27.6666V3.55059C7.02991 2.86364 7.32401 2.2148 7.8209 1.73952C8.3178 1.26424 8.97907 0.999268 9.66667 0.999919H23C23.7072 0.999919 24.3855 1.28087 24.8856 1.78097C25.3857 2.28106 25.6667 2.95934 25.6667 3.66659V27.6666C25.6667 28.3738 25.3857 29.0521 24.8856 29.5522C24.3855 30.0523 23.7072 30.3333 23 30.3333ZM9 3.66659V28.4999H23.5V3.55059L20.3333 3.66659C20.3333 4.37383 20.0524 5.05211 19.5523 5.5522C19.0522 6.0523 18.3739 6.33325 17.6667 6.33325H15C14.2928 6.33325 13.6145 6.0523 13.1144 5.5522C12.6143 5.05211 12.3333 4.37383 12.3333 3.66659H9Z" fill="#111111"/>
</svg>
